<mxfile host="65bd71144e">
    <diagram id="ZetOZe2FWv2F4SrSsgP-" name="第1頁">
        <mxGraphModel dx="1013" dy="529" grid="1" gridSize="10" guides="1" tooltips="1" connect="1" arrows="1" fold="1" page="1" pageScale="1" pageWidth="827" pageHeight="1169" math="0" shadow="0">
            <root>
                <mxCell id="0"/>
                <mxCell id="1" parent="0"/>
                <mxCell id="36" value="&lt;font style=&quot;font-size: 11px;&quot; color=&quot;#000000&quot;&gt;程式中被建立的物件&lt;br&gt;執行規格長條格&lt;br&gt;訊息呼叫(操作)&lt;br&gt;&lt;/font&gt;" style="shape=note;whiteSpace=wrap;html=1;backgroundOutline=1;darkOpacity=0.05;strokeColor=#23445d;strokeWidth=2;fontSize=13;fillColor=#bac8d3;gradientDirection=east;size=24;" vertex="1" parent="1">
                    <mxGeometry x="474.99999999999994" y="376" width="150" height="60" as="geometry"/>
                </mxCell>
                <mxCell id="24" value="&lt;font style=&quot;font-size: 11px;&quot; color=&quot;#000000&quot;&gt;回復物件&lt;br&gt;訊息生命線&lt;/font&gt;" style="shape=note;whiteSpace=wrap;html=1;backgroundOutline=1;darkOpacity=0.05;strokeColor=#23445d;strokeWidth=1;fontSize=13;fillColor=#bac8d3;gradientDirection=east;size=24;" vertex="1" parent="1">
                    <mxGeometry x="230" y="430" width="99.85" height="50" as="geometry"/>
                </mxCell>
                <mxCell id="8" style="edgeStyle=none;html=1;fontSize=18;fontColor=#000000;dashed=1;endArrow=none;endFill=0;strokeWidth=2;fillColor=#1ba1e2;strokeColor=#1170af;" edge="1" parent="1" source="2" target="6">
                    <mxGeometry relative="1" as="geometry"/>
                </mxCell>
                <mxCell id="2" value="&lt;font size=&quot;1&quot; style=&quot;&quot; color=&quot;#000000&quot;&gt;&lt;u style=&quot;font-size: 18px;&quot;&gt;:InstanceA&lt;/u&gt;&lt;/font&gt;" style="rounded=0;whiteSpace=wrap;html=1;gradientDirection=west;fillColor=#1ba1e2;fontColor=#ffffff;strokeColor=#006EAF;gradientColor=#FFFFFF;" vertex="1" parent="1">
                    <mxGeometry x="120" y="130" width="120" height="60" as="geometry"/>
                </mxCell>
                <mxCell id="3" value="&lt;font size=&quot;1&quot; style=&quot;&quot; color=&quot;#000000&quot;&gt;&lt;u style=&quot;font-size: 18px;&quot;&gt;:InstanceB&lt;/u&gt;&lt;/font&gt;" style="rounded=0;whiteSpace=wrap;html=1;gradientDirection=west;fillColor=#1ba1e2;fontColor=#ffffff;strokeColor=#006EAF;gradientColor=#FFFFFF;" vertex="1" parent="1">
                    <mxGeometry x="300" y="130" width="120" height="60" as="geometry"/>
                </mxCell>
                <mxCell id="4" value="&lt;font size=&quot;1&quot; style=&quot;&quot; color=&quot;#000000&quot;&gt;&lt;u style=&quot;font-size: 18px;&quot;&gt;:InstanceC&lt;/u&gt;&lt;/font&gt;" style="rounded=0;whiteSpace=wrap;html=1;gradientDirection=west;fillColor=#1ba1e2;fontColor=#ffffff;strokeColor=#006EAF;gradientColor=#FFFFFF;" vertex="1" parent="1">
                    <mxGeometry x="490" y="130" width="120" height="60" as="geometry"/>
                </mxCell>
                <mxCell id="6" value="" style="rounded=0;whiteSpace=wrap;html=1;fontSize=18;fontColor=#000000;fillColor=#FFFFFF;gradientColor=none;gradientDirection=east;rotation=90;strokeColor=#000000;strokeWidth=2;" vertex="1" parent="1">
                    <mxGeometry x="87.5" y="327.5" width="185" height="20" as="geometry"/>
                </mxCell>
                <mxCell id="9" value="" style="endArrow=classic;html=1;fontSize=18;fontColor=#000000;fillColor=#1ba1e2;strokeColor=#006EAF;strokeWidth=2;" edge="1" parent="1">
                    <mxGeometry width="50" height="50" relative="1" as="geometry">
                        <mxPoint x="60" y="260" as="sourcePoint"/>
                        <mxPoint x="160" y="260" as="targetPoint"/>
                    </mxGeometry>
                </mxCell>
                <mxCell id="10" value="&lt;font style=&quot;font-size: 13px;&quot;&gt;operation1()&lt;/font&gt;" style="text;html=1;strokeColor=none;fillColor=none;align=center;verticalAlign=middle;whiteSpace=wrap;rounded=0;fontSize=18;fontColor=#000000;" vertex="1" parent="1">
                    <mxGeometry x="50" y="236" width="100" height="20" as="geometry"/>
                </mxCell>
                <mxCell id="12" value="" style="endArrow=classic;html=1;strokeWidth=2;fontSize=13;fontColor=#FFFFFF;dashed=1;fillColor=#1ba1e2;strokeColor=#006EAF;" edge="1" parent="1">
                    <mxGeometry width="50" height="50" relative="1" as="geometry">
                        <mxPoint x="160" y="430" as="sourcePoint"/>
                        <mxPoint x="70" y="430" as="targetPoint"/>
                    </mxGeometry>
                </mxCell>
                <mxCell id="13" style="edgeStyle=none;html=1;fontSize=18;fontColor=#000000;dashed=1;endArrow=none;endFill=0;fillColor=#1ba1e2;strokeColor=#006EAF;strokeWidth=2;" edge="1" parent="1">
                    <mxGeometry relative="1" as="geometry">
                        <mxPoint x="179.57" y="430" as="sourcePoint"/>
                        <mxPoint x="180" y="470" as="targetPoint"/>
                    </mxGeometry>
                </mxCell>
                <mxCell id="14" style="edgeStyle=none;html=1;fontSize=18;fontColor=#000000;dashed=1;endArrow=none;endFill=0;strokeWidth=2;fillColor=#1ba1e2;strokeColor=#1170AF;" edge="1" parent="1" target="15">
                    <mxGeometry relative="1" as="geometry">
                        <mxPoint x="360" y="200" as="sourcePoint"/>
                    </mxGeometry>
                </mxCell>
                <mxCell id="15" value="" style="rounded=0;whiteSpace=wrap;html=1;fontSize=18;fontColor=#000000;fillColor=#FFFFFF;gradientColor=none;gradientDirection=east;rotation=90;strokeColor=#000000;strokeWidth=2;" vertex="1" parent="1">
                    <mxGeometry x="324.93" y="294.45" width="70.15" height="20" as="geometry"/>
                </mxCell>
                <mxCell id="16" value="" style="endArrow=classic;html=1;fontSize=18;fontColor=#000000;fillColor=#1ba1e2;strokeColor=#006EAF;strokeWidth=2;" edge="1" parent="1">
                    <mxGeometry width="50" height="50" relative="1" as="geometry">
                        <mxPoint x="190" y="280" as="sourcePoint"/>
                        <mxPoint x="350" y="280" as="targetPoint"/>
                    </mxGeometry>
                </mxCell>
                <mxCell id="17" value="" style="endArrow=classic;html=1;dashed=1;strokeWidth=2;fontSize=13;fontColor=#FFFFFF;fillColor=#1ba1e2;strokeColor=#006EAF;" edge="1" parent="1">
                    <mxGeometry width="50" height="50" relative="1" as="geometry">
                        <mxPoint x="350" y="337" as="sourcePoint"/>
                        <mxPoint x="190" y="337" as="targetPoint"/>
                    </mxGeometry>
                </mxCell>
                <mxCell id="18" value="" style="rounded=0;whiteSpace=wrap;html=1;fontSize=18;fontColor=#000000;fillColor=#FFFFFF;gradientColor=none;gradientDirection=east;rotation=90;strokeColor=#000000;strokeWidth=2;" vertex="1" parent="1">
                    <mxGeometry x="344.85" y="384.84" width="30.31" height="20" as="geometry"/>
                </mxCell>
                <mxCell id="19" value="" style="endArrow=classic;html=1;fontSize=18;fontColor=#000000;fillColor=#1ba1e2;strokeColor=#006EAF;strokeWidth=2;" edge="1" parent="1">
                    <mxGeometry width="50" height="50" relative="1" as="geometry">
                        <mxPoint x="190" y="382" as="sourcePoint"/>
                        <mxPoint x="350.0000000000001" y="382" as="targetPoint"/>
                    </mxGeometry>
                </mxCell>
                <mxCell id="20" value="" style="endArrow=classic;html=1;dashed=1;strokeWidth=2;fontSize=13;fontColor=#FFFFFF;fillColor=#1ba1e2;strokeColor=#006EAF;" edge="1" parent="1">
                    <mxGeometry width="50" height="50" relative="1" as="geometry">
                        <mxPoint x="350.0000000000001" y="409.9999999999999" as="sourcePoint"/>
                        <mxPoint x="190" y="410" as="targetPoint"/>
                    </mxGeometry>
                </mxCell>
                <mxCell id="21" style="edgeStyle=none;html=1;fontSize=18;fontColor=#000000;dashed=1;endArrow=none;endFill=0;strokeWidth=2;fillColor=#1ba1e2;strokeColor=#006EAF;exitX=1;exitY=0.5;exitDx=0;exitDy=0;" edge="1" parent="1" source="15">
                    <mxGeometry relative="1" as="geometry">
                        <mxPoint x="360" y="350" as="sourcePoint"/>
                        <mxPoint x="360" y="380" as="targetPoint"/>
                    </mxGeometry>
                </mxCell>
                <mxCell id="23" style="edgeStyle=none;html=1;fontSize=18;fontColor=#000000;dashed=1;endArrow=none;endFill=0;strokeWidth=2;fillColor=#1ba1e2;strokeColor=#006EAF;" edge="1" parent="1">
                    <mxGeometry relative="1" as="geometry">
                        <mxPoint x="359.64" y="410" as="sourcePoint"/>
                        <mxPoint x="360" y="470" as="targetPoint"/>
                    </mxGeometry>
                </mxCell>
                <mxCell id="25" value="&lt;font color=&quot;#000000&quot; style=&quot;font-size: 13px;&quot;&gt;operation2()&lt;/font&gt;" style="text;html=1;strokeColor=none;fillColor=none;align=center;verticalAlign=middle;whiteSpace=wrap;rounded=0;fontSize=18;fontColor=#FFFFFF;" vertex="1" parent="1">
                    <mxGeometry x="210" y="256" width="100" height="20" as="geometry"/>
                </mxCell>
                <mxCell id="26" value="&lt;font style=&quot;font-size: 13px;&quot;&gt;operation4()&lt;/font&gt;" style="text;html=1;strokeColor=none;fillColor=none;align=center;verticalAlign=middle;whiteSpace=wrap;rounded=0;fontSize=18;fontColor=#000000;" vertex="1" parent="1">
                    <mxGeometry x="210" y="359" width="100" height="20" as="geometry"/>
                </mxCell>
                <mxCell id="29" style="edgeStyle=none;html=1;fontSize=18;fontColor=#000000;dashed=1;endArrow=none;endFill=0;strokeWidth=2;fillColor=#1ba1e2;strokeColor=#1170af;" edge="1" parent="1" target="30">
                    <mxGeometry relative="1" as="geometry">
                        <mxPoint x="549.99" y="196" as="sourcePoint"/>
                    </mxGeometry>
                </mxCell>
                <mxCell id="30" value="" style="rounded=0;whiteSpace=wrap;html=1;fontSize=18;fontColor=#000000;fillColor=#FFFFFF;gradientColor=none;gradientDirection=east;rotation=90;strokeColor=#000000;strokeWidth=2;" vertex="1" parent="1">
                    <mxGeometry x="534.92" y="290.14" width="30.15" height="20" as="geometry"/>
                </mxCell>
                <mxCell id="31" style="edgeStyle=none;html=1;fontSize=18;fontColor=#000000;dashed=1;endArrow=none;endFill=0;strokeWidth=2;fillColor=#1ba1e2;strokeColor=#006EAF;exitX=1;exitY=0.5;exitDx=0;exitDy=0;" edge="1" parent="1" source="30">
                    <mxGeometry relative="1" as="geometry">
                        <mxPoint x="549.99" y="346" as="sourcePoint"/>
                        <mxPoint x="549.99" y="376" as="targetPoint"/>
                    </mxGeometry>
                </mxCell>
                <mxCell id="34" value="" style="endArrow=classic;html=1;fontSize=18;fontColor=#000000;fillColor=#1ba1e2;strokeColor=#006EAF;strokeWidth=2;" edge="1" parent="1">
                    <mxGeometry width="50" height="50" relative="1" as="geometry">
                        <mxPoint x="370" y="290" as="sourcePoint"/>
                        <mxPoint x="540" y="289.53" as="targetPoint"/>
                    </mxGeometry>
                </mxCell>
                <mxCell id="35" value="" style="endArrow=classic;html=1;dashed=1;strokeWidth=2;fontSize=13;fontColor=#FFFFFF;fillColor=#1ba1e2;strokeColor=#006EAF;entryX=0.635;entryY=-0.026;entryDx=0;entryDy=0;entryPerimeter=0;" edge="1" parent="1" target="15">
                    <mxGeometry width="50" height="50" relative="1" as="geometry">
                        <mxPoint x="540" y="313.02999999999986" as="sourcePoint"/>
                        <mxPoint x="392.0050000000001" y="314.0886499999999" as="targetPoint"/>
                    </mxGeometry>
                </mxCell>
                <mxCell id="37" style="edgeStyle=none;html=1;fontSize=18;fontColor=#000000;dashed=1;endArrow=classic;endFill=1;strokeWidth=2;fillColor=#1ba1e2;strokeColor=#058DAF;dashPattern=1 2;" edge="1" parent="1">
                    <mxGeometry relative="1" as="geometry">
                        <mxPoint x="590" y="370" as="sourcePoint"/>
                        <mxPoint x="590.0042762147109" y="189.99499999999995" as="targetPoint"/>
                    </mxGeometry>
                </mxCell>
                <mxCell id="38" style="edgeStyle=none;html=1;fontSize=18;fontColor=#000000;dashed=1;endArrow=classic;endFill=1;strokeWidth=2;fillColor=#1ba1e2;strokeColor=#058DAF;dashPattern=1 2;" edge="1" parent="1">
                    <mxGeometry relative="1" as="geometry">
                        <mxPoint x="505.08" y="404.84000000000003" as="sourcePoint"/>
                        <mxPoint x="370" y="340" as="targetPoint"/>
                    </mxGeometry>
                </mxCell>
                <mxCell id="39" style="edgeStyle=none;html=1;fontSize=18;fontColor=#000000;dashed=1;endArrow=classic;endFill=1;strokeWidth=2;fillColor=#1ba1e2;strokeColor=#058DAF;dashPattern=1 2;" edge="1" parent="1">
                    <mxGeometry relative="1" as="geometry">
                        <mxPoint x="510.23999999999995" y="423.84000000000003" as="sourcePoint"/>
                        <mxPoint x="310" y="390" as="targetPoint"/>
                    </mxGeometry>
                </mxCell>
                <mxCell id="40" value="&lt;font style=&quot;font-size: 13px;&quot;&gt;operation3()&lt;/font&gt;" style="text;html=1;strokeColor=none;fillColor=none;align=center;verticalAlign=middle;whiteSpace=wrap;rounded=0;fontSize=18;fontColor=#000000;" vertex="1" parent="1">
                    <mxGeometry x="395.08000000000004" y="266" width="100" height="20" as="geometry"/>
                </mxCell>
                <mxCell id="41" style="edgeStyle=none;html=1;fontSize=18;fontColor=#000000;dashed=1;endArrow=classic;endFill=1;strokeWidth=2;fillColor=#1ba1e2;strokeColor=#058DAF;dashPattern=1 2;" edge="1" parent="1">
                    <mxGeometry relative="1" as="geometry">
                        <mxPoint x="302.99999999999994" y="454.84000000000015" as="sourcePoint"/>
                        <mxPoint x="360" y="430" as="targetPoint"/>
                    </mxGeometry>
                </mxCell>
                <mxCell id="42" style="edgeStyle=none;html=1;fontSize=18;fontColor=#000000;dashed=1;endArrow=classic;endFill=1;strokeWidth=2;fillColor=#1ba1e2;strokeColor=#058DAF;dashPattern=1 2;" edge="1" parent="1">
                    <mxGeometry relative="1" as="geometry">
                        <mxPoint x="251.43000000000012" y="454.84000000000015" as="sourcePoint"/>
                        <mxPoint x="130" y="440" as="targetPoint"/>
                    </mxGeometry>
                </mxCell>
            </root>
        </mxGraphModel>
    </diagram>
</mxfile>